<svg xmlns="http://www.w3.org/2000/svg" width="128" height="128" fill="none" viewBox="0 0 1024 1024"><path fill="#0C0C0D" d="M249 129.507C218.817 133.641 191.166 147.099 169.911 168C150.12 187.46 137.222 210.745 130.841 238.533L128.552 248.5 128.247 512C127.91 803.103 127.571 786.249 134.182 806.927C140.53 826.783 150.216 842.406 165.905 858.095C184.994 877.184 205.797 888.421 231.906 893.747C239.972 895.392 257.185 895.5 512 895.5C770.526 895.5 783.93 895.413 792.5 893.681C846.015 882.865 886.658 840.115 894.469 786.427C895.896 776.615 896.027 748.611 895.753 512L895.448 248.5 893.214 238.801C889.362 222.077 882.643 205.219 875.192 193.581C852.054 157.442 814.94 134.218 772.026 129.025C758.382 127.374 261.228 127.832 249 129.507Z"/><path fill="#FFF" fill-rule="evenodd" d="M384 512V768H416H448V512V256H416H384V512ZM484.667 256.667C484.3 257.033 484 268.288 484 281.676V306.019L487.75 308.619C489.813 310.05 514 325.152 541.5 342.18C569 359.208 591.866 373.497 592.314 373.934C592.761 374.37 591.411 375.733 589.314 376.962C587.216 378.192 562.663 393.369 534.75 410.69L484 442.183V467.592V493H496.36H508.721L564.11 458.68C594.575 439.804 624.117 421.466 629.76 417.93L640.02 411.5 639.76 374.574 639.5 337.648 573.62 296.824 507.739 256H496.536C490.375 256 485.033 256.3 484.667 256.667ZM484.233 556.604L484.5 582.208 527.5 609.157C551.15 623.978 575.331 639.119 581.235 642.802C587.14 646.486 591.865 649.816 591.735 650.202C591.556 650.736 518.466 696.423 488.25 714.888L484 717.485V742.743V768H495.75H507.5L517.096 762.249C522.374 759.087 552.182 740.75 583.337 721.5L639.981 686.5 639.991 650.287 640 614.075 634.25 610.187C631.087 608.05 606.9 592.785 580.5 576.266C554.1 559.747 527.1 542.806 520.5 538.619L508.5 531.007H496.233H483.966L484.233 556.604Z" clip-rule="evenodd"/></svg>